<svg width="24" height="24" viewBox="0 0 24 24" xmlns="http://www.w3.org/2000/svg">
  <path d="M3 6.75A2.75 2.75 0 0 1 5.75 4h4.12c.73 0 1.43.29 1.95.8l1.38 1.4c.24.24.57.38.92.38h4.13A2.75 2.75 0 0 1 21 9.33v7.92A2.75 2.75 0 0 1 18.25 20H5.75A2.75 2.75 0 0 1 3 17.25V6.75Z" fill="url(#a)"/>
  <path d="M3 9.5h18v7.75A2.75 2.75 0 0 1 18.25 20H5.75A2.75 2.75 0 0 1 3 17.25V9.5Z" fill="url(#b)"/>
  <path d="M7 13.25c0-.69.56-1.25 1.25-1.25h7.5a1.25 1.25 0 1 1 0 2.5h-7.5A1.25 1.25 0 0 1 7 13.25Zm0 3.25c0-.55.45-1 1-1h5.5a1 1 0 1 1 0 2H8a1 1 0 0 1-1-1Z" fill="rgba(255,255,255,.78)"/>
  <defs>
    <linearGradient id="a" x1="3" y1="4" x2="20" y2="13" gradientUnits="userSpaceOnUse"><stop stop-color="#7DD3FC"/><stop offset="1" stop-color="#2563EB"/></linearGradient>
    <linearGradient id="b" x1="3" y1="9.5" x2="20" y2="20" gradientUnits="userSpaceOnUse"><stop stop-color="#22D3EE"/><stop offset="1" stop-color="#0F766E"/></linearGradient>
  </defs>
</svg>
