<?xml version="1.0" encoding="utf-8"?>
<svg xmlns="http://www.w3.org/2000/svg" width="24" height="24" viewBox="0 0 24 24" fill="none">
  <path d="M12.012 2.25c.734.008 1.465.093 2.182.253a.75.75 0 0 1 .582.649l.17 1.527a1.38 1.38 0 0 0 1.927 1.116l1.401-.615a.75.75 0 0 1 .849.174 9.74 9.74 0 0 1 2.205 3.792.75.75 0 0 1-.271.825l-1.242.916a1.38 1.38 0 0 0 0 2.226l1.243.915a.75.75 0 0 1 .272.826 9.74 9.74 0 0 1-2.204 3.792.75.75 0 0 1-.849.175l-1.406-.617a1.38 1.38 0 0 0-1.926 1.113l-.169 1.527a.75.75 0 0 1-.572.648 9.71 9.71 0 0 1-4.406 0 .75.75 0 0 1-.572-.648l-.169-1.524a1.38 1.38 0 0 0-1.925-1.111l-1.406.616a.75.75 0 0 1-.849-.175 9.75 9.75 0 0 1-2.204-3.796.75.75 0 0 1 .272-.826l1.243-.916a1.38 1.38 0 0 0 0-2.226l-1.243-.914a.75.75 0 0 1-.272-.826 9.74 9.74 0 0 1 2.205-3.792.75.75 0 0 1 .849-.174l1.4.615a1.38 1.38 0 0 0 1.931-1.118l.17-1.525a.75.75 0 0 1 .583-.649 10.04 10.04 0 0 1 2.201-.253ZM12 9a3 3 0 1 0 0 6 3 3 0 0 0 0-6Z" fill="url(#settings_color)"/>
  <defs>
    <linearGradient id="settings_color" x1="16.682" y1="20.995" x2="5.785" y2="3.996" gradientUnits="userSpaceOnUse">
      <stop stop-color="#70777D"/>
      <stop offset="1" stop-color="#B9C0C7"/>
    </linearGradient>
  </defs>
</svg>
